<svg xmlns="http://www.w3.org/2000/svg">
<symbol viewBox="0 0 10 16" id="symbol">
<path d="M0.724499 14.9222C0.458309 14.6579 0.308792 14.2996 0.308792 13.926C0.308792 13.5525 0.458309 13.1942 0.724499 12.9299L5.87962 7.81747L0.724499 2.7051C0.473415 2.43787 0.336723 2.08443 0.34322 1.71923C0.349717 1.35403 0.498897 1.00559 0.759331 0.747317C1.01976 0.489042 1.37112 0.341097 1.73937 0.334654C2.10762 0.32821 2.46402 0.463771 2.73348 0.712774L8.89308 6.82131C9.15928 7.08562 9.30879 7.44391 9.30879 7.81747C9.30879 8.19104 9.15928 8.54932 8.89308 8.81364L2.73348 14.9222C2.46696 15.1862 2.10567 15.3344 1.72899 15.3344C1.3523 15.3344 0.991021 15.1862 0.724499 14.9222Z"/>
</symbol>
</svg> 
