<svg xmlns="http://www.w3.org/2000/svg">
<symbol viewBox="0 0 10 16" id="symbol">
<path d="M8.89309 0.746695C9.15928 1.01101 9.30879 1.36929 9.30879 1.74286C9.30879 2.11642 9.15928 2.47471 8.89309 2.73902L3.73797 7.8514L8.89309 12.9638C9.14417 13.231 9.28086 13.5844 9.27436 13.9496C9.26787 14.3148 9.11869 14.6633 8.85825 14.9216C8.59782 15.1798 8.24647 15.3278 7.87821 15.3342C7.50996 15.3407 7.15356 15.2051 6.88411 14.9561L0.724499 8.84756C0.458309 8.58325 0.308792 8.22496 0.308792 7.8514C0.308792 7.47783 0.458309 7.11955 0.724499 6.85523L6.88411 0.746695C7.15063 0.482712 7.51191 0.334435 7.8886 0.334435C8.26528 0.334435 8.62656 0.482712 8.89309 0.746695Z"/>
</symbol>
</svg>