<svg xmlns="http://www.w3.org/2000/svg">
<symbol viewBox="0 0 13 13" id="symbol">
<path d="M7.8957 6.48999L12.1915 2.20353C12.3797 2.01538 12.4854 1.76019 12.4854 1.49411C12.4854 1.22803 12.3797 0.972843 12.1915 0.784694C12.0034 0.596546 11.7483 0.490845 11.4822 0.490845C11.2162 0.490845 10.961 0.596546 10.7729 0.784694L6.48706 5.08115L2.2012 0.784694C2.01308 0.596546 1.75793 0.490845 1.49189 0.490845C1.22584 0.490845 0.970695 0.596546 0.782573 0.784694C0.594451 0.972843 0.488766 1.22803 0.488765 1.49411C0.488765 1.76019 0.594451 2.01538 0.782573 2.20353L5.07842 6.48999L0.782573 10.7765C0.688935 10.8693 0.614613 10.9799 0.563893 11.1016C0.513174 11.2234 0.487061 11.354 0.487061 11.4859C0.487061 11.6178 0.513174 11.7484 0.563893 11.8701C0.614613 11.9919 0.688935 12.1024 0.782573 12.1953C0.875446 12.2889 0.985941 12.3633 1.10768 12.414C1.22942 12.4647 1.36 12.4908 1.49189 12.4908C1.62377 12.4908 1.75435 12.4647 1.87609 12.414C1.99783 12.3633 2.10833 12.2889 2.2012 12.1953L6.48706 7.89883L10.7729 12.1953C10.8658 12.2889 10.9763 12.3633 11.098 12.414C11.2198 12.4647 11.3503 12.4908 11.4822 12.4908C11.6141 12.4908 11.7447 12.4647 11.8664 12.414C11.9882 12.3633 12.0987 12.2889 12.1915 12.1953C12.2852 12.1024 12.3595 11.9919 12.4102 11.8701C12.4609 11.7484 12.4871 11.6178 12.4871 11.4859C12.4871 11.354 12.4609 11.2234 12.4102 11.1016C12.3595 10.9799 12.2852 10.8693 12.1915 10.7765L7.8957 6.48999Z"/>
</symbol>
</svg> 
