<svg xmlns="http://www.w3.org/2000/svg">
<symbol viewBox="0 0 18 16" id="symbol">
<path d="M10.141 0.5C8.1519 0.5 6.24424 1.29018 4.83772 2.6967C3.4312 4.10322 2.64102 6.01088 2.64102 8H0.141022L3.38269 11.2417L3.44102 11.3583L6.80769 8H4.30769C4.30769 4.775 6.91602 2.16667 10.141 2.16667C13.366 2.16667 15.9744 4.775 15.9744 8C15.9744 11.225 13.366 13.8333 10.141 13.8333C8.53269 13.8333 7.07436 13.175 6.02436 12.1167L4.84102 13.3C5.53553 13.9983 6.36143 14.5523 7.27107 14.9299C8.18072 15.3075 9.15612 15.5012 10.141 15.5C12.1301 15.5 14.0378 14.7098 15.4443 13.3033C16.8508 11.8968 17.641 9.98912 17.641 8C17.641 6.01088 16.8508 4.10322 15.4443 2.6967C14.0378 1.29018 12.1301 0.5 10.141 0.5ZM9.30769 4.66667V8.83333L12.8744 10.95L13.4744 9.94167L10.5577 8.20833V4.66667H9.30769Z"/>
</symbol>
</svg> 