<svg xmlns="http://www.w3.org/2000/svg">
    <symbol viewBox="0 0 20 30" id="symbol">
        <path d="M17.4405 0H2.55813C1.92666 -1.22347e-08 1.32106 0.250817 0.874498 0.697286C0.42794 1.14376 0.177004 1.74932 0.17688 2.38078V27.6206C0.177501 28.2519 0.428596 28.8572 0.875046 29.3036C1.3215 29.7499 1.92682 30.0009 2.55813 30.0014H17.4405C18.0718 30.0005 18.6771 29.7495 19.1236 29.3032C19.5702 28.857 19.8218 28.252 19.8231 27.6206V2.38453C19.8224 1.75301 19.5711 1.1476 19.1243 0.701225C18.6776 0.254849 18.072 0.00399795 17.4405 0.00375" fill="#405866"/>
        <path d="M15.8964 1.81687H4.10266C3.60246 1.81687 3.12267 2.01526 2.76854 2.36851C2.41441 2.72176 2.21483 3.20105 2.21359 3.70125V23.7014C2.21483 24.2016 2.41441 24.6809 2.76854 25.0341C3.12267 25.3874 3.60246 25.5858 4.10266 25.5858H15.8964C16.937 25.5858 17.7808 24.7373 17.7808 23.7014V3.69937C17.7808 2.65875 16.9347 1.815 15.8964 1.815" fill="#85CFEA"/>
        <path d="M9.67187 1.81687H4.10546C3.60526 1.81687 3.12548 2.01526 2.77135 2.36851C2.41721 2.72176 2.21764 3.20105 2.2164 3.70125V23.7014C2.21764 24.2016 2.41721 24.6809 2.77135 25.0341C3.12548 25.3874 3.60526 25.5858 4.10546 25.5858H15.8992C16.2803 25.5858 16.6323 25.4691 16.9286 25.2769C11.9144 18.7453 9.23031 9.96516 9.67327 1.81594" fill="#28A6DE"/>
        <path d="M11.5469 27.8391C11.5469 28.6908 10.855 29.385 10.0014 29.385C9.14782 29.385 8.45595 28.6913 8.45595 27.8391C8.45595 26.9869 9.14782 26.2931 10.0014 26.2931C10.855 26.2931 11.5469 26.9869 11.5469 27.8391ZM5.59142 27.8391C5.59457 27.9894 5.56769 28.1389 5.51234 28.2788C5.457 28.4187 5.3743 28.5461 5.2691 28.6536C5.16389 28.7611 5.0383 28.8465 4.89967 28.9048C4.76104 28.9632 4.61215 28.9933 4.46174 28.9934C4.31133 28.9935 4.16241 28.9636 4.02371 28.9054C3.885 28.8472 3.7593 28.7619 3.65397 28.6546C3.54863 28.5472 3.46577 28.4199 3.41025 28.2801C3.35473 28.1403 3.32767 27.9909 3.33063 27.8405C3.33647 27.5447 3.45804 27.2629 3.66924 27.0557C3.88045 26.8485 4.16446 26.7323 4.46034 26.7322C4.75621 26.732 5.04037 26.8478 5.25183 27.0547C5.46329 27.2617 5.58521 27.5433 5.59142 27.8391ZM14.4109 27.8391C14.4066 27.9902 14.4326 28.1407 14.4874 28.2816C14.5423 28.4226 14.6248 28.551 14.7302 28.6595C14.8356 28.7679 14.9616 28.8542 15.1009 28.913C15.2402 28.9719 15.3899 29.0022 15.5411 29.0022C15.6923 29.0022 15.842 28.9719 15.9813 28.913C16.1206 28.8542 16.2466 28.7679 16.352 28.6595C16.4574 28.551 16.5399 28.4226 16.5948 28.2816C16.6496 28.1407 16.6756 27.9902 16.6713 27.8391C16.6713 27.5393 16.5522 27.2519 16.3402 27.0399C16.1283 26.828 15.8408 26.7089 15.5411 26.7089C15.2414 26.7089 14.9539 26.828 14.742 27.0399C14.53 27.2519 14.4109 27.5393 14.4109 27.8391Z" fill="#CBD5DC"/>
    </symbol>
</svg>
