<svg xmlns="http://www.w3.org/2000/svg">
<symbol viewBox="0 0 11 16" id="symbol">
<path d="M2.80768 0.5C3.02869 0.5 3.24065 0.587797 3.39693 0.744078C3.55321 0.900358 3.64101 1.11232 3.64101 1.33333V14.6667C3.64101 14.8877 3.55321 15.0996 3.39693 15.2559C3.24065 15.4122 3.02869 15.5 2.80768 15.5H1.14101C0.919998 15.5 0.708036 15.4122 0.551756 15.2559C0.395476 15.0996 0.307678 14.8877 0.307678 14.6667V1.33333C0.307678 1.11232 0.395476 0.900358 0.551756 0.744078C0.708036 0.587797 0.919998 0.5 1.14101 0.5H2.80768ZM9.47434 0.5C9.69536 0.5 9.90732 0.587797 10.0636 0.744078C10.2199 0.900358 10.3077 1.11232 10.3077 1.33333V14.6667C10.3077 14.8877 10.2199 15.0996 10.0636 15.2559C9.90732 15.4122 9.69536 15.5 9.47434 15.5H7.80768C7.58666 15.5 7.3747 15.4122 7.21842 15.2559C7.06214 15.0996 6.97434 14.8877 6.97434 14.6667V1.33333C6.97434 1.11232 7.06214 0.900358 7.21842 0.744078C7.3747 0.587797 7.58666 0.5 7.80768 0.5H9.47434Z"/>
</symbol>
</svg> 
