<svg xmlns="http://www.w3.org/2000/svg">
<symbol viewBox="0 0 9 12" id="symbol">
<path fill-rule="evenodd" clip-rule="evenodd" d="M1.47436 0.333331C1.35055 0.240475 1.20333 0.18393 1.04919 0.170032C0.895058 0.156133 0.740099 0.185431 0.601677 0.254642C0.463256 0.323853 0.346842 0.430242 0.265479 0.561889C0.184117 0.693535 0.141022 0.845238 0.141022 0.999998V11C0.141022 11.1548 0.184117 11.3065 0.265479 11.4381C0.346842 11.5698 0.463256 11.6761 0.601677 11.7454C0.740099 11.8146 0.895058 11.8439 1.04919 11.83C1.20333 11.8161 1.35055 11.7595 1.47436 11.6667L8.14102 6.66666C8.24452 6.58904 8.32852 6.48839 8.38638 6.37268C8.44423 6.25696 8.47435 6.12937 8.47435 6C8.47435 5.87063 8.44423 5.74303 8.38638 5.62732C8.32852 5.51161 8.24452 5.41095 8.14102 5.33333L1.47436 0.333331Z"/>
</symbol>
</svg> 