<svg xmlns="http://www.w3.org/2000/svg">
<symbol viewBox="0 0 17 18" id="symbol">
<path d="M16.1471 15.4605L12.4718 11.7852C13.3566 10.6072 13.8343 9.17331 13.8327 7.7C13.8327 3.93672 10.771 0.875 7.00769 0.875C3.24441 0.875 0.182693 3.93672 0.182693 7.7C0.182693 11.4633 3.24441 14.525 7.00769 14.525C8.48101 14.5266 9.91486 14.0489 11.0928 13.1641L14.7682 16.8395C14.9543 17.0058 15.1969 17.0945 15.4464 17.0876C15.6958 17.0806 15.9332 16.9784 16.1096 16.8019C16.2861 16.6255 16.3883 16.3881 16.3953 16.1387C16.4022 15.8893 16.3135 15.6466 16.1471 15.4605ZM2.13269 7.7C2.13269 6.73582 2.41861 5.79329 2.95428 4.9916C3.48995 4.18991 4.25132 3.56506 5.14211 3.19609C6.0329 2.82711 7.0131 2.73057 7.95876 2.91867C8.90442 3.10677 9.77306 3.57107 10.4548 4.25285C11.1366 4.93464 11.6009 5.80328 11.789 6.74893C11.9771 7.69459 11.8806 8.67479 11.5116 9.56558C11.1426 10.4564 10.5178 11.2177 9.7161 11.7534C8.91441 12.2891 7.97188 12.575 7.00769 12.575C5.71524 12.5734 4.47616 12.0593 3.56226 11.1454C2.64836 10.2315 2.13424 8.99245 2.13269 7.7Z"/>
</symbol>
</svg> 
