<svg xmlns="http://www.w3.org/2000/svg">
<symbol viewBox="0 0 23 16" id="symbol">
<path d="M10.8484 15.6923C10.3408 15.6923 9.84845 15.5231 9.43307 15.2L5.2023 11.9077H3.15614C1.87922 11.9077 0.84845 10.8769 0.84845 9.6V6.52308C0.84845 5.24615 1.87922 4.21538 3.15614 4.21538H5.2023L9.43307 0.923075C10.1408 0.384613 11.0638 0.276921 11.8638 0.676921C12.6638 1.06154 13.1561 1.86154 13.1561 2.75384V13.3846C13.1572 13.6879 13.0982 13.9885 12.9825 14.2689C12.8669 14.5494 12.697 14.8042 12.4825 15.0187C12.268 15.2332 12.0132 15.4031 11.7328 15.5187C11.4523 15.6343 11.1518 15.6933 10.8484 15.6923ZM3.15614 5.75384C2.72537 5.75384 2.38691 6.09231 2.38691 6.52308V9.6C2.38691 10.0308 2.72537 10.3692 3.15614 10.3692H5.46383C5.63307 10.3692 5.8023 10.4308 5.94076 10.5385L10.3869 13.9846C10.6177 14.1692 10.9254 14.2 11.2023 14.0615C11.4792 13.9231 11.6331 13.6769 11.6331 13.3692V2.75384C11.6331 2.44615 11.4792 2.2 11.2023 2.06154C11.0734 1.99441 10.9279 1.96596 10.7832 1.97961C10.6386 1.99326 10.501 2.04842 10.3869 2.13846L5.94076 5.58461C5.80542 5.6932 5.63735 5.75284 5.46383 5.75384H3.15614ZM18.5408 11.9077C18.11 11.9077 17.7715 11.5692 17.7715 11.1385V4.98461C17.7715 4.55384 18.11 4.21538 18.5408 4.21538C18.9715 4.21538 19.31 4.55384 19.31 4.98461V11.1385C19.31 11.5692 18.9715 11.9077 18.5408 11.9077Z"/>
<path d="M21.6177 8.83077H15.4638C15.0331 8.83077 14.6946 8.49231 14.6946 8.06154C14.6946 7.63077 15.0331 7.29231 15.4638 7.29231H21.6177C22.0485 7.29231 22.3869 7.63077 22.3869 8.06154C22.3869 8.49231 22.0485 8.83077 21.6177 8.83077Z"/>
</symbol>
</svg> 