<svg xmlns="http://www.w3.org/2000/svg">
<symbol viewBox="0 0 22 16" id="symbol">
<path d="M10.4684 15.6308C9.96075 15.6308 9.46844 15.4615 9.05306 15.1385L4.82229 11.8462H2.77614C1.49921 11.8462 0.468445 10.8154 0.468445 9.53846V6.46154C0.468445 5.18461 1.49921 4.15384 2.77614 4.15384H4.82229L9.05306 0.861536C9.76075 0.323075 10.6838 0.215382 11.4838 0.615382C12.2838 0.999998 12.7761 1.8 12.7761 2.69231V13.3231C12.7772 13.6264 12.7182 13.9269 12.6025 14.2074C12.4869 14.4878 12.317 14.7426 12.1025 14.9571C11.888 15.1716 11.6332 15.3416 11.3528 15.4572C11.0723 15.5728 10.7718 15.6318 10.4684 15.6308ZM2.77614 5.69231C2.34537 5.69231 2.00691 6.03077 2.00691 6.46154V9.53846C2.00691 9.96923 2.34537 10.3077 2.77614 10.3077H5.08383C5.25306 10.3077 5.42229 10.3692 5.56075 10.4769L10.0069 13.9231C10.2377 14.1077 10.5454 14.1385 10.8223 14C11.0992 13.8615 11.2531 13.6154 11.2531 13.3077V2.67692C11.2531 2.36923 11.0992 2.12307 10.8223 1.98461C10.6934 1.91749 10.5479 1.88904 10.4032 1.90269C10.2586 1.91633 10.1209 1.9715 10.0069 2.06154L5.56075 5.50769C5.42541 5.61628 5.25734 5.67591 5.08383 5.67692H2.77614V5.69231ZM21.2377 8.76923H15.0838C14.6531 8.76923 14.3146 8.43077 14.3146 8C14.3146 7.56923 14.6531 7.23077 15.0838 7.23077H21.2377C21.6684 7.23077 22.0069 7.56923 22.0069 8C22.0069 8.43077 21.6684 8.76923 21.2377 8.76923Z"/>
</symbol>
</svg> 